<mxfile host="app.diagrams.net" modified="2021-01-23T14:04:44.871Z" agent="5.0 (Windows NT 10.0; WOW64) AppleWebKit/537.36 (KHTML, like Gecko) Chrome/86.0.4240.198 Safari/537.36" etag="6L7jCeOgqNX78XmjwnQs" version="14.0.4" type="github">
  <diagram id="C5RBs43oDa-KdzZeNtuy" name="Page-1">
    <mxGraphModel dx="1554" dy="581" grid="1" gridSize="10" guides="1" tooltips="1" connect="1" arrows="1" fold="1" page="1" pageScale="1" pageWidth="827" pageHeight="1169" math="0" shadow="0">
      <root>
        <mxCell id="WIyWlLk6GJQsqaUBKTNV-0" />
        <mxCell id="WIyWlLk6GJQsqaUBKTNV-1" parent="WIyWlLk6GJQsqaUBKTNV-0" />
        <mxCell id="WIyWlLk6GJQsqaUBKTNV-3" value="&lt;span style=&quot;color: rgb(51, 51, 51); font-size: 11px; background-color: rgb(255, 255, 255);&quot;&gt;用户微信扫描小程序二维码&lt;/span&gt;" style="rounded=1;whiteSpace=wrap;html=1;fontSize=11;glass=0;strokeWidth=1;shadow=0;" parent="WIyWlLk6GJQsqaUBKTNV-1" vertex="1">
          <mxGeometry x="41" y="80" width="279" height="40" as="geometry" />
        </mxCell>
        <mxCell id="WIyWlLk6GJQsqaUBKTNV-4" value="" style="rounded=0;html=1;jettySize=auto;orthogonalLoop=1;fontSize=11;endArrow=block;endFill=0;endSize=8;strokeWidth=1;shadow=0;labelBackgroundColor=none;edgeStyle=orthogonalEdgeStyle;fontStyle=1;entryX=0.5;entryY=0;entryDx=0;entryDy=0;" parent="WIyWlLk6GJQsqaUBKTNV-1" source="WIyWlLk6GJQsqaUBKTNV-6" target="WIyWlLk6GJQsqaUBKTNV-7" edge="1">
          <mxGeometry relative="1" as="geometry">
            <mxPoint as="offset" />
            <mxPoint x="116" y="310" as="targetPoint" />
          </mxGeometry>
        </mxCell>
        <object label="未预约" id="WIyWlLk6GJQsqaUBKTNV-5">
          <mxCell style="edgeStyle=orthogonalEdgeStyle;rounded=0;html=1;jettySize=auto;orthogonalLoop=1;fontSize=11;endArrow=block;endFill=0;endSize=8;strokeWidth=1;shadow=0;labelBackgroundColor=none;exitX=0.5;exitY=1;exitDx=0;exitDy=0;entryX=0.5;entryY=0;entryDx=0;entryDy=0;fontStyle=1" parent="WIyWlLk6GJQsqaUBKTNV-1" source="WIyWlLk6GJQsqaUBKTNV-3" target="WIyWlLk6GJQsqaUBKTNV-6" edge="1">
            <mxGeometry x="0.037" y="-10" relative="1" as="geometry">
              <mxPoint as="offset" />
              <Array as="points">
                <mxPoint x="181" y="120" />
                <mxPoint x="181" y="150" />
                <mxPoint x="116" y="150" />
              </Array>
            </mxGeometry>
          </mxCell>
        </object>
        <mxCell id="WIyWlLk6GJQsqaUBKTNV-6" value="&lt;span style=&quot;color: rgb(51 , 51 , 51) ; background-color: rgb(255 , 255 , 255) ; font-size: 10px&quot;&gt;填写预约信息&lt;br&gt;（姓名、预约时间、手机号码等）&amp;nbsp;&lt;/span&gt;" style="rhombus;whiteSpace=wrap;html=1;shadow=0;fontFamily=Helvetica;fontSize=10;align=center;strokeWidth=1;spacing=10;spacingTop=10;spacingLeft=10;spacingBottom=10;spacingRight=10;" parent="WIyWlLk6GJQsqaUBKTNV-1" vertex="1">
          <mxGeometry x="61" y="183" width="110" height="100" as="geometry" />
        </mxCell>
        <mxCell id="WIyWlLk6GJQsqaUBKTNV-7" value="点击预约按钮" style="rounded=1;whiteSpace=wrap;html=1;fontSize=12;glass=0;strokeWidth=1;shadow=0;" parent="WIyWlLk6GJQsqaUBKTNV-1" vertex="1">
          <mxGeometry x="56" y="320" width="120" height="40" as="geometry" />
        </mxCell>
        <object label="" id="moW7MfI9QaKfDxdkwFT4-2">
          <mxCell style="edgeStyle=orthogonalEdgeStyle;rounded=0;html=1;jettySize=auto;orthogonalLoop=1;fontSize=11;endArrow=block;endFill=0;endSize=8;strokeWidth=1;shadow=0;labelBackgroundColor=none;fontStyle=1;exitX=0.5;exitY=1;exitDx=0;exitDy=0;entryX=0.5;entryY=0;entryDx=0;entryDy=0;" parent="WIyWlLk6GJQsqaUBKTNV-1" source="WIyWlLk6GJQsqaUBKTNV-7" target="moW7MfI9QaKfDxdkwFT4-7" edge="1">
            <mxGeometry x="0.0345" y="20" relative="1" as="geometry">
              <mxPoint as="offset" />
              <mxPoint x="161" y="400" as="sourcePoint" />
              <mxPoint x="181" y="440" as="targetPoint" />
            </mxGeometry>
          </mxCell>
        </object>
        <object label="已预约" id="moW7MfI9QaKfDxdkwFT4-5">
          <mxCell style="edgeStyle=orthogonalEdgeStyle;rounded=0;html=1;jettySize=auto;orthogonalLoop=1;fontSize=11;endArrow=block;endFill=0;endSize=8;strokeWidth=1;shadow=0;labelBackgroundColor=none;exitX=0.5;exitY=1;exitDx=0;exitDy=0;fontStyle=1;entryX=1;entryY=0.5;entryDx=0;entryDy=0;" parent="WIyWlLk6GJQsqaUBKTNV-1" source="WIyWlLk6GJQsqaUBKTNV-3" target="moW7MfI9QaKfDxdkwFT4-7" edge="1">
            <mxGeometry x="-0.7544" y="10" relative="1" as="geometry">
              <mxPoint as="offset" />
              <mxPoint x="316" y="180" as="sourcePoint" />
              <mxPoint x="271" y="630" as="targetPoint" />
              <Array as="points">
                <mxPoint x="181" y="120" />
                <mxPoint x="181" y="150" />
                <mxPoint x="300" y="150" />
                <mxPoint x="300" y="480" />
              </Array>
            </mxGeometry>
          </mxCell>
        </object>
        <mxCell id="moW7MfI9QaKfDxdkwFT4-6" value="收到预约&lt;br&gt;成功模板消息" style="rhombus;whiteSpace=wrap;html=1;shadow=0;fontFamily=Helvetica;fontSize=12;align=center;strokeWidth=1;spacing=6;spacingTop=-4;" parent="WIyWlLk6GJQsqaUBKTNV-1" vertex="1">
          <mxGeometry y="440" width="100" height="80" as="geometry" />
        </mxCell>
        <mxCell id="moW7MfI9QaKfDxdkwFT4-7" value="展示预约&lt;br&gt;成功信息" style="rhombus;whiteSpace=wrap;html=1;shadow=0;fontFamily=Helvetica;fontSize=12;align=center;strokeWidth=1;spacing=6;spacingTop=-4;" parent="WIyWlLk6GJQsqaUBKTNV-1" vertex="1">
          <mxGeometry x="131" y="440" width="100" height="80" as="geometry" />
        </mxCell>
        <object label="预约成功" id="moW7MfI9QaKfDxdkwFT4-11">
          <mxCell style="edgeStyle=orthogonalEdgeStyle;rounded=0;html=1;jettySize=auto;orthogonalLoop=1;fontSize=11;endArrow=block;endFill=0;endSize=8;strokeWidth=1;shadow=0;labelBackgroundColor=none;fontStyle=1;entryX=0.5;entryY=0;entryDx=0;entryDy=0;exitX=0.5;exitY=1;exitDx=0;exitDy=0;" parent="WIyWlLk6GJQsqaUBKTNV-1" source="WIyWlLk6GJQsqaUBKTNV-7" target="moW7MfI9QaKfDxdkwFT4-6" edge="1">
            <mxGeometry x="-0.7419" relative="1" as="geometry">
              <mxPoint as="offset" />
              <mxPoint x="126" y="380" as="sourcePoint" />
              <mxPoint x="191" y="450" as="targetPoint" />
            </mxGeometry>
          </mxCell>
        </object>
        <mxCell id="moW7MfI9QaKfDxdkwFT4-13" value="预约小程序流程图前台" style="text;html=1;align=center;verticalAlign=middle;resizable=0;points=[];autosize=1;fontSize=23;fontStyle=0" parent="WIyWlLk6GJQsqaUBKTNV-1" vertex="1">
          <mxGeometry x="55.5" y="25" width="250" height="30" as="geometry" />
        </mxCell>
        <mxCell id="g31PPvSDOEEg_XIyvHkc-0" value="预约小程序流程图后台" style="text;html=1;align=center;verticalAlign=middle;resizable=0;points=[];autosize=1;fontSize=23;fontStyle=0" parent="WIyWlLk6GJQsqaUBKTNV-1" vertex="1">
          <mxGeometry x="515" y="25" width="250" height="30" as="geometry" />
        </mxCell>
        <mxCell id="g31PPvSDOEEg_XIyvHkc-1" value="&lt;font color=&quot;#333333&quot;&gt;&lt;span style=&quot;background-color: rgb(255 , 255 , 255)&quot;&gt;管理员登录后台系统&lt;/span&gt;&lt;/font&gt;" style="rounded=1;whiteSpace=wrap;html=1;fontSize=11;glass=0;strokeWidth=1;shadow=0;" parent="WIyWlLk6GJQsqaUBKTNV-1" vertex="1">
          <mxGeometry x="480" y="80" width="320" height="40" as="geometry" />
        </mxCell>
        <mxCell id="g31PPvSDOEEg_XIyvHkc-4" value="&lt;font color=&quot;#333333&quot;&gt;&lt;span style=&quot;background-color: rgb(255 , 255 , 255)&quot;&gt;查询&lt;/span&gt;&lt;/font&gt;" style="rhombus;whiteSpace=wrap;html=1;shadow=0;fontFamily=Helvetica;fontSize=10;align=center;strokeWidth=1;spacing=10;spacingTop=10;spacingLeft=10;spacingBottom=10;spacingRight=10;" parent="WIyWlLk6GJQsqaUBKTNV-1" vertex="1">
          <mxGeometry x="460" y="210" width="70" height="60" as="geometry" />
        </mxCell>
        <mxCell id="g31PPvSDOEEg_XIyvHkc-6" value="&lt;font color=&quot;#333333&quot;&gt;&lt;span style=&quot;background-color: rgb(255 , 255 , 255)&quot;&gt;浏览&lt;/span&gt;&lt;/font&gt;" style="rhombus;whiteSpace=wrap;html=1;shadow=0;fontFamily=Helvetica;fontSize=10;align=center;strokeWidth=1;spacing=10;spacingTop=10;spacingLeft=10;spacingBottom=10;spacingRight=10;" parent="WIyWlLk6GJQsqaUBKTNV-1" vertex="1">
          <mxGeometry x="559" y="210" width="70" height="60" as="geometry" />
        </mxCell>
        <mxCell id="g31PPvSDOEEg_XIyvHkc-7" value="&lt;font color=&quot;#333333&quot;&gt;&lt;span style=&quot;background-color: rgb(255 , 255 , 255)&quot;&gt;导出EXCEL&lt;/span&gt;&lt;/font&gt;" style="rhombus;whiteSpace=wrap;html=1;shadow=0;fontFamily=Helvetica;fontSize=10;align=center;strokeWidth=1;spacing=10;spacingTop=10;spacingLeft=10;spacingBottom=10;spacingRight=10;" parent="WIyWlLk6GJQsqaUBKTNV-1" vertex="1">
          <mxGeometry x="658" y="210" width="70" height="60" as="geometry" />
        </mxCell>
        <object label="" id="g31PPvSDOEEg_XIyvHkc-8">
          <mxCell style="edgeStyle=orthogonalEdgeStyle;rounded=0;html=1;jettySize=auto;orthogonalLoop=1;fontSize=11;endArrow=block;endFill=0;endSize=8;strokeWidth=1;shadow=0;labelBackgroundColor=none;fontStyle=1;entryX=0.5;entryY=0;entryDx=0;entryDy=0;exitX=0.5;exitY=1;exitDx=0;exitDy=0;" parent="WIyWlLk6GJQsqaUBKTNV-1" source="g31PPvSDOEEg_XIyvHkc-1" target="g31PPvSDOEEg_XIyvHkc-4" edge="1">
            <mxGeometry x="-0.7544" y="10" relative="1" as="geometry">
              <mxPoint as="offset" />
              <mxPoint x="575" y="160" as="sourcePoint" />
              <mxPoint x="575" y="530" as="targetPoint" />
              <Array as="points">
                <mxPoint x="640" y="160" />
                <mxPoint x="495" y="160" />
              </Array>
            </mxGeometry>
          </mxCell>
        </object>
        <object label="" id="g31PPvSDOEEg_XIyvHkc-9">
          <mxCell style="edgeStyle=orthogonalEdgeStyle;rounded=0;html=1;jettySize=auto;orthogonalLoop=1;fontSize=11;endArrow=block;endFill=0;endSize=8;strokeWidth=1;shadow=0;labelBackgroundColor=none;fontStyle=1;exitX=0.5;exitY=1;exitDx=0;exitDy=0;entryX=0.5;entryY=0;entryDx=0;entryDy=0;" parent="WIyWlLk6GJQsqaUBKTNV-1" source="g31PPvSDOEEg_XIyvHkc-1" target="g31PPvSDOEEg_XIyvHkc-6" edge="1">
            <mxGeometry x="-0.7544" y="10" relative="1" as="geometry">
              <mxPoint as="offset" />
              <mxPoint x="620" y="130" as="sourcePoint" />
              <mxPoint x="590" y="180" as="targetPoint" />
              <Array as="points">
                <mxPoint x="640" y="160" />
                <mxPoint x="594" y="160" />
              </Array>
            </mxGeometry>
          </mxCell>
        </object>
        <object label="" id="g31PPvSDOEEg_XIyvHkc-10">
          <mxCell style="edgeStyle=orthogonalEdgeStyle;rounded=0;html=1;jettySize=auto;orthogonalLoop=1;fontSize=11;endArrow=block;endFill=0;endSize=8;strokeWidth=1;shadow=0;labelBackgroundColor=none;fontStyle=1;entryX=0.5;entryY=0;entryDx=0;entryDy=0;exitX=0.596;exitY=1;exitDx=0;exitDy=0;exitPerimeter=0;" parent="WIyWlLk6GJQsqaUBKTNV-1" source="g31PPvSDOEEg_XIyvHkc-1" target="g31PPvSDOEEg_XIyvHkc-7" edge="1">
            <mxGeometry x="-0.7544" y="10" relative="1" as="geometry">
              <mxPoint as="offset" />
              <mxPoint x="620" y="130" as="sourcePoint" />
              <mxPoint x="525" y="220" as="targetPoint" />
              <Array as="points">
                <mxPoint x="640" y="120" />
                <mxPoint x="640" y="160" />
                <mxPoint x="693" y="160" />
              </Array>
            </mxGeometry>
          </mxCell>
        </object>
        <mxCell id="g31PPvSDOEEg_XIyvHkc-12" value="按姓名查询" style="shape=display;whiteSpace=wrap;html=1;" parent="WIyWlLk6GJQsqaUBKTNV-1" vertex="1">
          <mxGeometry x="541" y="310" width="80" height="40" as="geometry" />
        </mxCell>
        <mxCell id="g31PPvSDOEEg_XIyvHkc-14" style="edgeStyle=orthogonalEdgeStyle;html=1;labelBackgroundColor=none;startFill=0;startSize=8;endArrow=block;endFill=0;endSize=16;fontFamily=Verdana;fontSize=12;entryX=0;entryY=0.5;entryDx=0;entryDy=0;entryPerimeter=0;exitX=0.5;exitY=1;exitDx=0;exitDy=0;" parent="WIyWlLk6GJQsqaUBKTNV-1" source="g31PPvSDOEEg_XIyvHkc-4" target="g31PPvSDOEEg_XIyvHkc-12" edge="1">
          <mxGeometry relative="1" as="geometry">
            <Array as="points">
              <mxPoint x="495" y="330" />
            </Array>
            <mxPoint x="530" y="280" as="sourcePoint" />
            <mxPoint x="565" y="400" as="targetPoint" />
          </mxGeometry>
        </mxCell>
        <mxCell id="g31PPvSDOEEg_XIyvHkc-15" value="按身份证查询" style="shape=display;whiteSpace=wrap;html=1;" parent="WIyWlLk6GJQsqaUBKTNV-1" vertex="1">
          <mxGeometry x="541" y="360" width="80" height="40" as="geometry" />
        </mxCell>
        <mxCell id="g31PPvSDOEEg_XIyvHkc-16" style="edgeStyle=orthogonalEdgeStyle;html=1;labelBackgroundColor=none;startFill=0;startSize=8;endArrow=block;endFill=0;endSize=16;fontFamily=Verdana;fontSize=12;entryX=0;entryY=0.5;entryDx=0;entryDy=0;entryPerimeter=0;exitX=0.5;exitY=1;exitDx=0;exitDy=0;" parent="WIyWlLk6GJQsqaUBKTNV-1" target="g31PPvSDOEEg_XIyvHkc-15" edge="1" source="g31PPvSDOEEg_XIyvHkc-4">
          <mxGeometry relative="1" as="geometry">
            <Array as="points">
              <mxPoint x="495" y="380" />
            </Array>
            <mxPoint x="490" y="280" as="sourcePoint" />
            <mxPoint x="565" y="450" as="targetPoint" />
          </mxGeometry>
        </mxCell>
        <mxCell id="g31PPvSDOEEg_XIyvHkc-17" value="按日期查询" style="shape=display;whiteSpace=wrap;html=1;" parent="WIyWlLk6GJQsqaUBKTNV-1" vertex="1">
          <mxGeometry x="541" y="410" width="80" height="40" as="geometry" />
        </mxCell>
        <mxCell id="g31PPvSDOEEg_XIyvHkc-18" style="edgeStyle=orthogonalEdgeStyle;html=1;labelBackgroundColor=none;startFill=0;startSize=8;endArrow=block;endFill=0;endSize=16;fontFamily=Verdana;fontSize=12;entryX=0;entryY=0.5;entryDx=0;entryDy=0;entryPerimeter=0;exitX=0.5;exitY=1;exitDx=0;exitDy=0;" parent="WIyWlLk6GJQsqaUBKTNV-1" target="g31PPvSDOEEg_XIyvHkc-17" edge="1" source="g31PPvSDOEEg_XIyvHkc-4">
          <mxGeometry relative="1" as="geometry">
            <Array as="points">
              <mxPoint x="495" y="430" />
            </Array>
            <mxPoint x="440" y="270" as="sourcePoint" />
            <mxPoint x="565" y="500" as="targetPoint" />
          </mxGeometry>
        </mxCell>
        <mxCell id="g31PPvSDOEEg_XIyvHkc-19" value="失败" style="edgeStyle=segmentEdgeStyle;endArrow=classic;html=1;exitX=1;exitY=0.5;exitDx=0;exitDy=0;entryX=0;entryY=0.5;entryDx=0;entryDy=0;entryPerimeter=0;" parent="WIyWlLk6GJQsqaUBKTNV-1" source="WIyWlLk6GJQsqaUBKTNV-7" edge="1" target="RmjSnrgZIf84B88bqfaO-0">
          <mxGeometry x="0.0909" y="10" width="50" height="50" relative="1" as="geometry">
            <mxPoint x="200" y="340" as="sourcePoint" />
            <mxPoint x="220" y="340" as="targetPoint" />
            <Array as="points" />
            <mxPoint as="offset" />
          </mxGeometry>
        </mxCell>
        <mxCell id="RmjSnrgZIf84B88bqfaO-0" value="人数已满" style="shape=display;whiteSpace=wrap;html=1;" vertex="1" parent="WIyWlLk6GJQsqaUBKTNV-1">
          <mxGeometry x="222" y="320" width="69" height="40" as="geometry" />
        </mxCell>
        <object label="" id="RmjSnrgZIf84B88bqfaO-3">
          <mxCell style="edgeStyle=orthogonalEdgeStyle;rounded=0;html=1;jettySize=auto;orthogonalLoop=1;fontSize=11;endArrow=block;endFill=0;endSize=8;strokeWidth=1;shadow=0;labelBackgroundColor=none;fontStyle=1;entryX=0.5;entryY=0;entryDx=0;entryDy=0;" edge="1" parent="WIyWlLk6GJQsqaUBKTNV-1" target="RmjSnrgZIf84B88bqfaO-4">
            <mxGeometry x="-0.7544" y="10" relative="1" as="geometry">
              <mxPoint as="offset" />
              <mxPoint x="640" y="120" as="sourcePoint" />
              <mxPoint x="790" y="170" as="targetPoint" />
              <Array as="points">
                <mxPoint x="640" y="120" />
                <mxPoint x="640" y="160" />
                <mxPoint x="792" y="160" />
              </Array>
            </mxGeometry>
          </mxCell>
        </object>
        <mxCell id="RmjSnrgZIf84B88bqfaO-4" value="&lt;font color=&quot;#333333&quot;&gt;&lt;span style=&quot;background-color: rgb(255 , 255 , 255)&quot;&gt;统计&lt;/span&gt;&lt;/font&gt;" style="rhombus;whiteSpace=wrap;html=1;shadow=0;fontFamily=Helvetica;fontSize=10;align=center;strokeWidth=1;spacing=10;spacingTop=10;spacingLeft=10;spacingBottom=10;spacingRight=10;" vertex="1" parent="WIyWlLk6GJQsqaUBKTNV-1">
          <mxGeometry x="757" y="210" width="70" height="60" as="geometry" />
        </mxCell>
        <mxCell id="RmjSnrgZIf84B88bqfaO-5" style="edgeStyle=orthogonalEdgeStyle;html=1;labelBackgroundColor=none;startFill=0;startSize=8;endArrow=block;endFill=0;endSize=16;fontFamily=Verdana;fontSize=12;exitX=0.5;exitY=1;exitDx=0;exitDy=0;" edge="1" parent="WIyWlLk6GJQsqaUBKTNV-1" source="RmjSnrgZIf84B88bqfaO-4">
          <mxGeometry relative="1" as="geometry">
            <Array as="points">
              <mxPoint x="792" y="430" />
            </Array>
            <mxPoint x="790" y="270" as="sourcePoint" />
            <mxPoint x="750" y="430" as="targetPoint" />
          </mxGeometry>
        </mxCell>
        <mxCell id="RmjSnrgZIf84B88bqfaO-7" value="预约率统计" style="shape=display;whiteSpace=wrap;html=1;flipH=1;" vertex="1" parent="WIyWlLk6GJQsqaUBKTNV-1">
          <mxGeometry x="670" y="410" width="80" height="40" as="geometry" />
        </mxCell>
        <mxCell id="RmjSnrgZIf84B88bqfaO-8" value="分时刻统计" style="shape=display;whiteSpace=wrap;html=1;flipH=1;" vertex="1" parent="WIyWlLk6GJQsqaUBKTNV-1">
          <mxGeometry x="670" y="360" width="80" height="40" as="geometry" />
        </mxCell>
        <mxCell id="RmjSnrgZIf84B88bqfaO-9" value="每日预约统计" style="shape=display;whiteSpace=wrap;html=1;flipH=1;" vertex="1" parent="WIyWlLk6GJQsqaUBKTNV-1">
          <mxGeometry x="670" y="310" width="80" height="40" as="geometry" />
        </mxCell>
        <mxCell id="RmjSnrgZIf84B88bqfaO-10" style="edgeStyle=orthogonalEdgeStyle;html=1;labelBackgroundColor=none;startFill=0;startSize=8;endArrow=block;endFill=0;endSize=16;fontFamily=Verdana;fontSize=12;exitX=0.5;exitY=1;exitDx=0;exitDy=0;entryX=0;entryY=0.5;entryDx=0;entryDy=0;entryPerimeter=0;" edge="1" parent="WIyWlLk6GJQsqaUBKTNV-1" source="RmjSnrgZIf84B88bqfaO-4" target="RmjSnrgZIf84B88bqfaO-8">
          <mxGeometry relative="1" as="geometry">
            <Array as="points">
              <mxPoint x="792" y="380" />
            </Array>
            <mxPoint x="792" y="220" as="sourcePoint" />
            <mxPoint x="750" y="380" as="targetPoint" />
          </mxGeometry>
        </mxCell>
        <mxCell id="RmjSnrgZIf84B88bqfaO-11" style="edgeStyle=orthogonalEdgeStyle;html=1;labelBackgroundColor=none;startFill=0;startSize=8;endArrow=block;endFill=0;endSize=16;fontFamily=Verdana;fontSize=12;exitX=0.5;exitY=1;exitDx=0;exitDy=0;entryX=0;entryY=0.5;entryDx=0;entryDy=0;entryPerimeter=0;" edge="1" parent="WIyWlLk6GJQsqaUBKTNV-1" source="RmjSnrgZIf84B88bqfaO-4" target="RmjSnrgZIf84B88bqfaO-9">
          <mxGeometry relative="1" as="geometry">
            <Array as="points">
              <mxPoint x="792" y="330" />
            </Array>
            <mxPoint x="792" y="220" as="sourcePoint" />
            <mxPoint x="750" y="330" as="targetPoint" />
          </mxGeometry>
        </mxCell>
        <mxCell id="RmjSnrgZIf84B88bqfaO-12" value="多人" style="edgeStyle=segmentEdgeStyle;endArrow=classic;html=1;exitX=1;exitY=0.5;exitDx=0;exitDy=0;entryX=0;entryY=0.5;entryDx=0;entryDy=0;entryPerimeter=0;" edge="1" parent="WIyWlLk6GJQsqaUBKTNV-1" target="RmjSnrgZIf84B88bqfaO-13" source="WIyWlLk6GJQsqaUBKTNV-6">
          <mxGeometry x="0.0909" y="10" width="50" height="50" relative="1" as="geometry">
            <mxPoint x="171" y="233.0000000000001" as="sourcePoint" />
            <mxPoint x="200" y="233" as="targetPoint" />
            <Array as="points" />
            <mxPoint as="offset" />
          </mxGeometry>
        </mxCell>
        <mxCell id="RmjSnrgZIf84B88bqfaO-13" value="添加随行人员" style="shape=display;whiteSpace=wrap;html=1;" vertex="1" parent="WIyWlLk6GJQsqaUBKTNV-1">
          <mxGeometry x="200" y="213" width="90" height="40" as="geometry" />
        </mxCell>
        <mxCell id="RmjSnrgZIf84B88bqfaO-14" value="备注：小程序拥有预约历史记录、导航入园（调用百度、高德APP），二次预约直接调取个人数据等功能。" style="rounded=0;whiteSpace=wrap;html=1;align=left;fillColor=#ffe6cc;strokeColor=#d79b00;" vertex="1" parent="WIyWlLk6GJQsqaUBKTNV-1">
          <mxGeometry x="11" y="570" width="299" height="40" as="geometry" />
        </mxCell>
        <mxCell id="RmjSnrgZIf84B88bqfaO-15" value="备注：后台可以进行园区最大预约人数上限进行设置。" style="rounded=0;whiteSpace=wrap;html=1;align=left;fillColor=#ffe6cc;strokeColor=#d79b00;" vertex="1" parent="WIyWlLk6GJQsqaUBKTNV-1">
          <mxGeometry x="501" y="565" width="299" height="40" as="geometry" />
        </mxCell>
      </root>
    </mxGraphModel>
  </diagram>
</mxfile>
